<?xml version="1.0" encoding="UTF-8" standalone="no"?>
<!-- Created with Inkscape (http://www.inkscape.org/) -->

<svg
   width="28.622053mm"
   height="9.1771049mm"
   viewBox="0 0 28.622053 9.1771049"
   version="1.1"
   id="svg1"
   inkscape:version="1.4.2 (ebf0e94, 2025-05-08)"
   sodipodi:docname="directLink_tegning.svg"
   xmlns:inkscape="http://www.inkscape.org/namespaces/inkscape"
   xmlns:sodipodi="http://sodipodi.sourceforge.net/DTD/sodipodi-0.dtd"
   xmlns="http://www.w3.org/2000/svg"
   xmlns:svg="http://www.w3.org/2000/svg">
  <sodipodi:namedview
     id="namedview1"
     pagecolor="#ffffff"
     bordercolor="#000000"
     borderopacity="0.25"
     inkscape:showpageshadow="2"
     inkscape:pageopacity="0.0"
     inkscape:pagecheckerboard="0"
     inkscape:deskcolor="#d1d1d1"
     inkscape:document-units="mm"
     inkscape:export-bgcolor="#ffffff00"
     inkscape:zoom="2.0334082"
     inkscape:cx="392.69047"
     inkscape:cy="502.35856"
     inkscape:window-width="1920"
     inkscape:window-height="1009"
     inkscape:window-x="-8"
     inkscape:window-y="-8"
     inkscape:window-maximized="1"
     inkscape:current-layer="layer1">
    <inkscape:page
       x="0"
       y="0"
       width="28.622053"
       height="9.1771049"
       id="page2"
       margin="0"
       bleed="0" />
  </sodipodi:namedview>
  <defs
     id="defs1" />
  <g
     inkscape:label="Lag 1"
     inkscape:groupmode="layer"
     id="layer1"
     transform="translate(-59.577482,-125.37635)">
    <rect
       style="fill:#ffe680;fill-opacity:1;stroke-width:0.0820607"
       id="rect2"
       width="28.622055"
       height="9.1771021"
       x="59.57748"
       y="125.37634"
       rx="2.2"
       ry="2.5999999"
       inkscape:export-filename="directLink.svg"
       inkscape:export-xdpi="9.5230055"
       inkscape:export-ydpi="9.5230055" />
    <path
       style="font-size:29.3333px;line-height:1;white-space:pre;stroke-width:0.143566"
       d="m 65.692789,129.68474 q 0,0.42214 -0.180965,0.76526 -0.178932,0.34312 -0.477829,0.53236 -0.207398,0.13101 -0.463595,0.18923 -0.254166,0.0582 -0.670995,0.0582 h -0.764526 v -3.09639 h 0.756393 q 0.443263,0 0.703527,0.0666 0.262297,0.0645 0.443262,0.17883 0.309064,0.19756 0.481896,0.52612 0.172832,0.32856 0.172832,0.77981 z m -0.420896,-0.006 q 0,-0.36391 -0.124033,-0.61345 -0.124032,-0.24954 -0.370063,-0.39303 -0.178931,-0.10398 -0.38023,-0.14349 -0.201298,-0.0416 -0.481895,-0.0416 h -0.378197 v 2.38936 h 0.378197 q 0.290764,0 0.506295,-0.0437 0.217564,-0.0437 0.398529,-0.16221 0.225698,-0.14764 0.33753,-0.38886 0.113867,-0.24123 0.113867,-0.60306 z m 1.451787,-1.16036 h -0.431064 v -0.40551 h 0.431064 z m -0.0244,2.71167 H 66.317017 V 128.907 h 0.382262 z m 2.173613,-1.89651 h -0.02033 q -0.0854,-0.0208 -0.166732,-0.0291 -0.0793,-0.0104 -0.189099,-0.0104 -0.176898,0 -0.341595,0.0811 -0.1647,0.079 -0.317198,0.20588 v 1.64904 h -0.382263 v -2.3228 h 0.382263 v 0.34311 q 0.227732,-0.18715 0.400564,-0.26409 0.174863,-0.079 0.355829,-0.079 0.09963,0 0.144366,0.006 0.04473,0.004 0.134198,0.0187 z m 2.261047,0.77566 h -1.67342 q 0,0.21419 0.06303,0.37431 0.06303,0.15804 0.172832,0.25994 0.105733,0.0998 0.250097,0.14972 0.146399,0.0499 0.321264,0.0499 0.231798,0 0.465628,-0.0936 0.235865,-0.0957 0.335497,-0.18715 h 0.02033 v 0.42629 q -0.193164,0.0832 -0.394463,0.13933 -0.201298,0.0562 -0.422929,0.0562 -0.565262,0 -0.882458,-0.31193 -0.317199,-0.314 -0.317199,-0.89003 0,-0.56978 0.302965,-0.90458 0.304997,-0.3348 0.801126,-0.3348 0.45953,0 0.707593,0.27449 0.250099,0.2745 0.250099,0.77982 z m -0.372098,-0.29945 q -0.002,-0.30777 -0.152498,-0.47621 -0.148432,-0.16844 -0.453429,-0.16844 -0.307031,0 -0.490029,0.18508 -0.180966,0.18508 -0.205365,0.45957 z m 2.63111,1.27474 q -0.191133,0.0936 -0.363964,0.14556 -0.170799,0.052 -0.363963,0.052 -0.246031,0 -0.451395,-0.0728 -0.205366,-0.0749 -0.351765,-0.22459 -0.148432,-0.14972 -0.229763,-0.37847 -0.08133,-0.22875 -0.08133,-0.53443 0,-0.56979 0.304998,-0.89419 0.30703,-0.3244 0.809259,-0.3244 0.195198,0 0.382262,0.0561 0.189099,0.0562 0.345665,0.13725 v 0.43462 h -0.02033 q -0.174865,-0.13933 -0.36193,-0.21419 -0.185031,-0.0749 -0.361929,-0.0749 -0.325331,0 -0.51443,0.22458 -0.187064,0.22251 -0.187064,0.65505 0,0.42006 0.182999,0.64672 0.185031,0.22459 0.518495,0.22459 0.115898,0 0.235863,-0.0312 0.119966,-0.0312 0.215532,-0.0811 0.08337,-0.0437 0.156565,-0.0915 0.0732,-0.0499 0.115899,-0.0853 h 0.02033 z m 1.669351,0.12477 q -0.107767,0.0291 -0.235865,0.0478 -0.126066,0.0187 -0.225698,0.0187 -0.347697,0 -0.528663,-0.19131 -0.180963,-0.19132 -0.180963,-0.61346 v -1.23522 H 73.632881 V 128.907 h 0.258232 v -0.66752 h 0.382262 v 0.66752 h 0.788927 v 0.32857 h -0.788927 v 1.05846 q 0,0.183 0.0081,0.28697 0.0081,0.1019 0.05693,0.19132 0.04473,0.0832 0.122,0.12269 0.0793,0.0374 0.239931,0.0374 0.09353,0 0.195198,-0.027 0.101665,-0.0291 0.146399,-0.0478 h 0.02033 z m 3.87143,0.0208 H 77.01835 v -3.09638 h 0.402596 v 2.73039 h 1.512786 z m 0.782827,-2.71167 h -0.431062 v -0.40551 h 0.431062 z m -0.0244,2.71167 H 79.309896 V 128.907 h 0.382264 z m 2.655507,0 h -0.382262 v -1.32256 q 0,-0.16013 -0.0183,-0.29945 -0.0183,-0.14141 -0.0671,-0.22043 -0.05083,-0.0873 -0.146399,-0.12893 -0.09557,-0.0437 -0.248065,-0.0437 -0.156565,0 -0.327363,0.079 -0.170799,0.079 -0.327364,0.20171 v 1.73431 H 80.448551 V 128.907 h 0.382264 v 0.25786 q 0.178931,-0.1518 0.370064,-0.23706 0.191131,-0.0853 0.39243,-0.0853 0.368029,0 0.561194,0.22667 0.193164,0.22666 0.193164,0.65296 z m 2.797841,0 h -0.504262 l -0.910925,-1.01688 -0.248064,0.24123 v 0.77565 h -0.382264 v -3.23571 h 0.382264 v 2.07535 l 1.104089,-1.16245 h 0.481896 l -1.055289,1.07303 z"
       id="text2"
       aria-label="Direct Link" />
  </g>
</svg>
