<?xml version="1.0" encoding="UTF-8" standalone="no"?>
<!-- Created with Inkscape (http://www.inkscape.org/) -->

<svg
   width="53.344505mm"
   height="16.723955mm"
   viewBox="0 0 53.344505 16.723955"
   version="1.1"
   id="svg1"
   xmlns:inkscape="http://www.inkscape.org/namespaces/inkscape"
   xmlns:sodipodi="http://sodipodi.sourceforge.net/DTD/sodipodi-0.dtd"
   xmlns="http://www.w3.org/2000/svg"
   xmlns:svg="http://www.w3.org/2000/svg">
  <sodipodi:namedview
     id="namedview1"
     pagecolor="#ffffff"
     bordercolor="#000000"
     borderopacity="0.25"
     inkscape:showpageshadow="2"
     inkscape:pageopacity="0.0"
     inkscape:pagecheckerboard="0"
     inkscape:deskcolor="#d1d1d1"
     inkscape:document-units="mm"
     inkscape:export-bgcolor="#ffffff00">
    <inkscape:page
       x="4.0538661e-16"
       y="0"
       width="53.344501"
       height="16.723955"
       id="page2"
       margin="0"
       bleed="0" />
  </sodipodi:namedview>
  <defs
     id="defs1" />
  <g
     inkscape:label="Lag 1"
     inkscape:groupmode="layer"
     id="layer1"
     transform="translate(-34.855032,-117.82949)">
    <rect
       style="fill:#ffe680;fill-opacity:1;stroke-width:0.151233"
       id="rect2"
       width="53.344505"
       height="16.723955"
       x="34.85503"
       y="117.82948"
       rx="8.6000004"
       ry="6.7999997"
       inkscape:export-filename="directLink.svg"
       inkscape:export-xdpi="16.18911"
       inkscape:export-ydpi="16.18911" />
    <path
       style="font-size:29.3333px;line-height:1;white-space:pre"
       d="m 174.81248,475.01458 q 0,2.90755 -1.27474,5.27083 -1.26042,2.36328 -3.36588,3.66666 -1.46094,0.90235 -3.26562,1.30339 -1.79037,0.40104 -4.72656,0.40104 h -5.38541 v -21.3268 h 5.32812 q 3.12239,0 4.95572,0.45833 1.84765,0.44401 3.12239,1.23177 2.17708,1.36068 3.39453,3.6237 1.21745,2.26301 1.21745,5.37108 z m -2.96484,-0.043 q 0,-2.50651 -0.8737,-4.22526 -0.8737,-1.71875 -2.60677,-2.70703 -1.26041,-0.71614 -2.67838,-0.98828 -1.41797,-0.28646 -3.39453,-0.28646 h -2.66406 v 16.45702 h 2.66406 q 2.04818,0 3.5664,-0.30078 1.53255,-0.30079 2.80729,-1.11719 1.58984,-1.01693 2.3776,-2.67838 0.80209,-1.66146 0.80209,-4.15364 z m 10.22655,-7.99218 h -3.03646 v -2.79297 h 3.03646 z m -0.17188,18.67706 h -2.6927 v -15.99868 h 2.6927 z m 15.31118,-13.06249 h -0.14323 q -0.60156,-0.14323 -1.17448,-0.20052 -0.55859,-0.0716 -1.33203,-0.0716 -1.24609,0 -2.40624,0.55859 -1.16016,0.54427 -2.23438,1.41797 v 11.35806 h -2.6927 v -15.99868 h 2.6927 v 2.36328 q 1.60417,-1.28906 2.82162,-1.81901 1.23176,-0.54427 2.5065,-0.54427 0.70183,0 1.01693,0.043 0.3151,0.0286 0.94531,0.1289 z m 15.92707,5.34245 h -11.78775 q 0,1.47525 0.44401,2.57812 0.44401,1.08854 1.21745,1.79036 0.74479,0.6875 1.76171,1.03125 1.03125,0.34375 2.26302,0.34375 1.63281,0 3.27994,-0.64453 1.66146,-0.65886 2.36328,-1.28906 h 0.14323 v 2.93619 q -1.36067,0.57292 -2.77864,0.95964 -1.41797,0.38671 -2.97916,0.38671 -3.98177,0 -6.21614,-2.14843 -2.23438,-2.16276 -2.23438,-6.1302 0,-3.92448 2.13412,-6.23046 2.14843,-2.30599 5.64322,-2.30599 3.23698,0 4.98437,1.89062 1.76172,1.89063 1.76172,5.37109 z m -2.6211,-2.0625 q -0.0143,-2.11979 -1.07421,-3.27995 -1.04557,-1.16015 -3.19401,-1.16015 -2.16276,0 -3.45182,1.27474 -1.27474,1.27474 -1.44661,3.16536 z m 18.53384,8.77994 q -1.34636,0.64453 -2.5638,1.0026 -1.20313,0.35807 -2.5638,0.35807 -1.73307,0 -3.17968,-0.5013 -1.44662,-0.51562 -2.47787,-1.54687 -1.04557,-1.03125 -1.61848,-2.60677 -0.57292,-1.57552 -0.57292,-3.68099 0,-3.92447 2.14844,-6.15884 2.16275,-2.23438 5.70051,-2.23438 1.375,0 2.6927,0.38672 1.33203,0.38672 2.4349,0.94531 v 2.99349 h -0.14323 q -1.23177,-0.95963 -2.54948,-1.47526 -1.30338,-0.51562 -2.54947,-0.51562 -2.29167,0 -3.6237,1.54687 -1.3177,1.53255 -1.3177,4.51171 0,2.89323 1.28906,4.45443 1.30338,1.54687 3.65234,1.54687 0.8164,0 1.66145,-0.21484 0.84505,-0.21485 1.51823,-0.5586 0.58724,-0.30078 1.10286,-0.63021 0.51563,-0.34375 0.81641,-0.58723 h 0.14323 z m 11.7591,0.85937 q -0.75912,0.20052 -1.66146,0.32943 -0.88802,0.1289 -1.58984,0.1289 -2.44922,0 -3.72396,-1.3177 -1.27473,-1.31771 -1.27473,-4.22526 v -8.5078 h -1.81901 v -2.26302 h 1.81901 v -4.59765 h 2.6927 v 4.59765 h 5.55729 v 2.26302 h -5.55729 v 7.29035 q 0,1.26042 0.0573,1.97656 0.0573,0.70183 0.40104,1.31771 0.31511,0.57292 0.85938,0.84505 0.55859,0.25781 1.6901,0.25781 0.65885,0 1.375,-0.18619 0.71614,-0.20052 1.03125,-0.32943 h 0.14323 z m 27.2708,0.14323 h -13.49217 v -21.3268 h 2.83593 v 18.80597 h 10.65624 z m 5.51432,-18.67706 h -3.03645 v -2.79297 h 3.03645 z m -0.17187,18.67706 h -2.69271 v -15.99868 h 2.69271 z m 18.7057,0 h -2.6927 v -9.10937 q 0,-1.10286 -0.12891,-2.06249 -0.12891,-0.97396 -0.47265,-1.51823 -0.35808,-0.60156 -1.03125,-0.88802 -0.67318,-0.30078 -1.7474,-0.30078 -1.10286,0 -2.30598,0.54427 -1.20313,0.54427 -2.30599,1.38932 v 11.9453 h -2.69271 v -15.99868 h 2.69271 v 1.77604 q 1.26041,-1.04557 2.60677,-1.63281 1.34635,-0.58724 2.76432,-0.58724 2.59244,0 3.95312,1.5612 1.36067,1.56119 1.36067,4.49739 z m 19.70831,0 h -3.55208 l -6.41666,-7.0039 -1.74739,1.66146 v 5.34244 h -2.69271 v -22.28643 h 2.69271 v 14.29425 l 7.77733,-8.0065 h 3.39453 l -7.43358,7.39062 z"
       id="text2"
       transform="scale(0.26458333)"
       aria-label="Direct Link" />
  </g>
</svg>
